#N canvas 198 234 450 300 12;
#X obj 36 34 inlet;
#X text 114 263 Signal;
#X obj 198 188 *~;
#X obj 123 116 vline~;
#X msg 121 84 0.25 1 \, 0 20 30;
#X text 87 35 Bang;
#X obj 55 260 outlet~;
#X text 238 24 Enable a creation argument;
#X obj 326 88 \$1;
#X obj 322 52 loadbang;
#X obj 194 148 osc~ 440;
#X connect 0 0 4 0;
#X connect 2 0 6 0;
#X connect 3 0 2 0;
#X connect 4 0 3 0;
#X connect 8 0 10 0;
#X connect 9 0 8 0;
#X connect 10 0 2 1;
